<svg width="24" height="24" viewBox="0 0 24 24" fill="none" xmlns="http://www.w3.org/2000/svg">
<path d="M13.3926 1.75195C13.9656 1.7543 14.2518 1.75567 14.3379 1.90527C14.4238 2.05493 14.265 2.33179 13.9463 2.88574C13.5034 3.65553 13.25 4.54815 13.25 5.5C13.25 8.3995 15.6005 10.75 18.5 10.75C19.4518 10.75 20.3445 10.4966 21.1143 10.0537C21.6682 9.735 21.9451 9.57615 22.0947 9.66211C22.2443 9.74823 22.2457 10.0344 22.248 10.6074C22.2498 11.0317 22.25 11.4765 22.25 11.9424V12.0576C22.25 14.2479 22.2499 15.9683 22.0693 17.3115C21.8842 18.6882 21.4969 19.7805 20.6387 20.6387C19.7805 21.4969 18.6882 21.8842 17.3115 22.0693C15.9683 22.2499 14.2479 22.25 12.0576 22.25H11.9424C9.75214 22.25 8.03173 22.2499 6.68848 22.0693C5.31182 21.8842 4.21953 21.4969 3.36133 20.6387C2.50313 19.7805 2.11575 18.6882 1.93066 17.3115C1.75012 15.9683 1.74999 14.2479 1.75 12.0576V11.9424C1.74999 9.75213 1.75012 8.03174 1.93066 6.68848C2.11575 5.31182 2.50313 4.21953 3.36133 3.36133C4.21953 2.50313 5.31182 2.11575 6.68848 1.93066C8.03174 1.75012 9.75213 1.74999 11.9424 1.75H12.0576C12.5235 1.75 12.9683 1.75022 13.3926 1.75195ZM7 13.75C6.58579 13.75 6.25 14.0858 6.25 14.5V17.5C6.25 17.9142 6.58579 18.25 7 18.25C7.41421 18.25 7.75 17.9142 7.75 17.5V14.5C7.75 14.0858 7.41421 13.75 7 13.75ZM12 8.75C11.5858 8.75 11.25 9.08579 11.25 9.5L11.25 17.5C11.25 17.9142 11.5858 18.25 12 18.25C12.4142 18.25 12.75 17.9142 12.75 17.5L12.75 9.5C12.75 9.08579 12.4142 8.75 12 8.75ZM17 12.75C16.5858 12.75 16.25 13.0858 16.25 13.5V17.5C16.25 17.9142 16.5858 18.25 17 18.25C17.4142 18.25 17.75 17.9142 17.75 17.5V13.5C17.75 13.0858 17.4142 12.75 17 12.75Z" fill="#7C7572"/>
<path d="M14.75 5.5C14.75 3.42893 16.4289 1.75 18.5 1.75C20.5711 1.75 22.25 3.42893 22.25 5.5C22.25 7.57107 20.5711 9.25 18.5 9.25C16.4289 9.25 14.75 7.57107 14.75 5.5Z" fill="#7C7572"/>
</svg>
