<svg width="20" height="20" viewBox="0 0 20 20" fill="none" xmlns="http://www.w3.org/2000/svg">
<path d="M14.1311 6.87114C13.6591 6.59862 13.0775 6.59862 12.6055 6.87114C12.4304 6.97226 12.2717 7.13112 12.0665 7.33658L9.61624 9.78691C9.30036 10.1028 9.14972 10.4869 9.05852 10.8442C9.01297 11.0226 8.98025 11.2028 8.95137 11.37L8.9364 11.4572C8.9128 11.595 8.89101 11.7223 8.86437 11.8469L8.85855 11.8741C8.80978 12.102 8.76386 12.3166 8.75275 12.4913C8.74072 12.6805 8.76116 12.9286 8.95796 13.1254C9.15476 13.3222 9.40289 13.3427 9.59204 13.3306C9.76678 13.3195 9.98133 13.2736 10.2092 13.2248L10.2365 13.219C10.361 13.1924 10.4883 13.1706 10.6262 13.147L10.7134 13.132C10.8806 13.1031 11.0608 13.0704 11.2392 13.0249C11.5964 12.9337 11.9806 12.783 12.2965 12.4671L14.7468 10.0168C14.9522 9.81165 15.1111 9.653 15.2122 9.47784C15.4848 9.00583 15.4848 8.42429 15.2122 7.95227C15.1111 7.77712 14.9522 7.61847 14.7468 7.41328L14.6701 7.33658C14.4649 7.13113 14.3063 6.97226 14.1311 6.87114Z" fill="#7C7572"/>
<path fill-rule="evenodd" clip-rule="evenodd" d="M10.895 1.66675H9.10493C7.38957 1.66673 6.01757 1.66671 4.94084 1.81147C3.82725 1.96119 2.90556 2.27936 2.17574 3.00918C1.44593 3.73899 1.12776 4.66069 0.978039 5.77427C0.833277 6.851 0.833293 8.22299 0.833313 9.93835V10.0618C0.833293 11.7772 0.833277 13.1492 0.978039 14.2259C1.12776 15.3395 1.44593 16.2612 2.17574 16.991C2.90556 17.7208 3.82725 18.039 4.94084 18.1887C6.01757 18.3335 7.38956 18.3334 9.10492 18.3334H10.895C12.6104 18.3334 13.9824 18.3335 15.0591 18.1887C16.1727 18.039 17.0944 17.7208 17.8242 16.991C18.554 16.2612 18.8722 15.3395 19.0219 14.2259C19.1667 13.1492 19.1667 11.7772 19.1666 10.0618V9.93838C19.1667 8.22303 19.1667 6.851 19.0219 5.77427C18.8722 4.66069 18.554 3.73899 17.8242 3.00918C17.0944 2.27936 16.1727 1.96119 15.0591 1.81147C13.9824 1.66671 12.6104 1.66673 10.895 1.66675ZM6.04165 15.8317C6.04165 16.2055 6.04165 16.3924 6.15993 16.5138C6.27821 16.6352 6.46103 16.6399 6.82668 16.6493C7.48996 16.6663 8.26024 16.6667 9.16665 16.6667H10.8333C12.6246 16.6667 13.8843 16.665 14.837 16.5369C15.7658 16.412 16.2772 16.181 16.6457 15.8125C17.0142 15.4439 17.2452 14.9326 17.3701 14.0038C17.4982 13.0511 17.5 11.7914 17.5 10.0001C17.5 8.20876 17.4982 6.9491 17.3701 5.99635C17.2452 5.06758 17.0142 4.55622 16.6457 4.18769C16.2772 3.81915 15.7658 3.58815 14.837 3.46328C13.8843 3.33519 12.6246 3.33342 10.8333 3.33342H9.16665C8.26024 3.33342 7.48996 3.33387 6.82668 3.35091C6.46103 3.36031 6.27821 3.365 6.15993 3.48636C6.04165 3.60772 6.04165 3.79463 6.04165 4.16844V15.8317Z" fill="#7C7572"/>
</svg>
